<svg width="284" height="87" viewBox="0 0 284 87" fill="none" xmlns="http://www.w3.org/2000/svg">
<g filter="url(#filter0_d_0_1)">
<path d="M20.312 60.968C20.312 62.632 20.824 63.816 21.848 64.52C22.936 65.224 24.44 65.576 26.36 65.576C27.32 65.576 28.312 65.512 29.336 65.384C30.36 65.192 31.256 64.968 32.024 64.712C32.6 65.416 33.08 66.216 33.464 67.112C33.912 67.944 34.136 68.968 34.136 70.184C34.136 72.616 33.208 74.6 31.352 76.136C29.56 77.672 26.36 78.44 21.752 78.44C16.12 78.44 11.768 77.16 8.696 74.6C5.688 72.04 4.184 67.88 4.184 62.12V21.032C4.888 20.84 5.88 20.648 7.16 20.456C8.504 20.2 9.912 20.072 11.384 20.072C14.2 20.072 16.376 20.584 17.912 21.608C19.512 22.568 20.312 24.648 20.312 27.848V33.992H32.888C33.272 34.696 33.624 35.592 33.944 36.68C34.328 37.704 34.52 38.856 34.52 40.136C34.52 42.376 34.008 44.008 32.984 45.032C32.024 45.992 30.712 46.472 29.048 46.472H20.312V60.968ZM42.0455 17.384C42.0455 14.952 42.8455 12.904 44.4455 11.24C46.1095 9.576 48.2855 8.744 50.9735 8.744C53.6615 8.744 55.8055 9.576 57.4055 11.24C59.0695 12.904 59.9015 14.952 59.9015 17.384C59.9015 19.816 59.0695 21.864 57.4055 23.528C55.8055 25.192 53.6615 26.024 50.9735 26.024C48.2855 26.024 46.1095 25.192 44.4455 23.528C42.8455 21.864 42.0455 19.816 42.0455 17.384ZM59.1335 76.904C58.4295 77.032 57.3735 77.192 55.9655 77.384C54.6215 77.64 53.2455 77.768 51.8375 77.768C50.4295 77.768 49.1495 77.672 47.9975 77.48C46.9095 77.288 45.9815 76.904 45.2135 76.328C44.4455 75.752 43.8375 74.984 43.3895 74.024C43.0055 73 42.8135 71.688 42.8135 70.088V31.016C43.5175 30.888 44.5415 30.728 45.8855 30.536C47.2935 30.28 48.7015 30.152 50.1095 30.152C51.5175 30.152 52.7655 30.248 53.8535 30.44C55.0055 30.632 55.9655 31.016 56.7335 31.592C57.5015 32.168 58.0775 32.968 58.4615 33.992C58.9095 34.952 59.1335 36.232 59.1335 37.832V76.904ZM99.0913 47.432C99.0913 45.448 98.5153 44.008 97.3633 43.112C96.2753 42.152 94.7713 41.672 92.8513 41.672C91.5713 41.672 90.2913 41.832 89.0113 42.152C87.7953 42.472 86.7393 42.952 85.8433 43.592V76.904C85.2033 77.096 84.1793 77.288 82.7713 77.48C81.4273 77.672 80.0193 77.768 78.5473 77.768C77.1393 77.768 75.8593 77.672 74.7073 77.48C73.6193 77.288 72.6913 76.904 71.9233 76.328C71.1553 75.752 70.5473 74.984 70.0993 74.024C69.7153 73 69.5233 71.688 69.5233 70.088V41.288C69.5233 39.56 69.8753 38.152 70.5793 37.064C71.3473 35.976 72.3713 34.984 73.6513 34.088C75.8273 32.552 78.5473 31.304 81.8113 30.344C85.1393 29.384 88.8193 28.904 92.8513 28.904C100.083 28.904 105.651 30.504 109.555 33.704C113.459 36.84 115.411 41.224 115.411 46.856V76.904C114.771 77.096 113.747 77.288 112.339 77.48C110.995 77.672 109.587 77.768 108.115 77.768C106.707 77.768 105.427 77.672 104.275 77.48C103.187 77.288 102.259 76.904 101.491 76.328C100.723 75.752 100.115 74.984 99.6673 74.024C99.2833 73 99.0913 71.688 99.0913 70.088V47.432ZM123.476 53.672C123.476 49.448 124.116 45.8 125.396 42.728C126.676 39.592 128.436 37 130.676 34.952C132.98 32.904 135.636 31.4 138.644 30.44C141.716 29.416 145.012 28.904 148.532 28.904C149.812 28.904 151.06 29.032 152.276 29.288C153.492 29.48 154.484 29.736 155.252 30.056V14.504C155.892 14.312 156.916 14.12 158.324 13.928C159.732 13.672 161.172 13.544 162.644 13.544C164.052 13.544 165.3 13.64 166.388 13.832C167.54 14.024 168.5 14.408 169.268 14.984C170.036 15.56 170.612 16.36 170.996 17.384C171.38 18.344 171.572 19.624 171.572 21.224V66.728C171.572 69.736 170.164 72.136 167.348 73.928C165.492 75.144 163.092 76.2 160.148 77.096C157.204 78.056 153.812 78.536 149.972 78.536C145.812 78.536 142.068 77.96 138.74 76.808C135.476 75.656 132.692 73.992 130.388 71.816C128.148 69.64 126.42 67.048 125.204 64.04C124.052 60.968 123.476 57.512 123.476 53.672ZM150.74 41.672C147.284 41.672 144.628 42.664 142.772 44.648C140.916 46.632 139.988 49.64 139.988 53.672C139.988 57.64 140.852 60.648 142.58 62.696C144.308 64.68 146.804 65.672 150.068 65.672C151.22 65.672 152.244 65.512 153.14 65.192C154.1 64.808 154.836 64.392 155.348 63.944V42.824C154.068 42.056 152.532 41.672 150.74 41.672ZM206.414 78.536C202.638 78.536 199.118 78.024 195.854 77C192.654 75.912 189.838 74.312 187.406 72.2C185.038 70.088 183.15 67.432 181.742 64.232C180.398 61.032 179.726 57.288 179.726 53C179.726 48.776 180.398 45.16 181.742 42.152C183.15 39.08 184.974 36.584 187.214 34.664C189.454 32.68 192.014 31.24 194.894 30.344C197.774 29.384 200.718 28.904 203.726 28.904C207.118 28.904 210.19 29.416 212.942 30.44C215.758 31.464 218.158 32.872 220.142 34.664C222.19 36.456 223.758 38.6 224.846 41.096C225.998 43.592 226.574 46.312 226.574 49.256C226.574 51.432 225.966 53.096 224.75 54.248C223.534 55.4 221.838 56.136 219.662 56.456L195.95 60.008C196.654 62.12 198.094 63.72 200.27 64.808C202.446 65.832 204.942 66.344 207.758 66.344C210.382 66.344 212.846 66.024 215.15 65.384C217.518 64.68 219.438 63.88 220.91 62.984C221.934 63.624 222.798 64.52 223.502 65.672C224.206 66.824 224.558 68.04 224.558 69.32C224.558 72.2 223.214 74.344 220.526 75.752C218.478 76.84 216.174 77.576 213.614 77.96C211.054 78.344 208.654 78.536 206.414 78.536ZM203.726 40.808C202.19 40.808 200.846 41.064 199.694 41.576C198.606 42.088 197.71 42.76 197.006 43.592C196.302 44.36 195.758 45.256 195.374 46.28C195.054 47.24 194.862 48.232 194.798 49.256L211.214 46.568C211.022 45.288 210.318 44.008 209.102 42.728C207.886 41.448 206.094 40.808 203.726 40.808ZM265.255 75.752C264.359 76.456 263.047 77.032 261.319 77.48C259.591 77.928 257.639 78.152 255.463 78.152C252.967 78.152 250.791 77.832 248.935 77.192C247.143 76.552 245.895 75.528 245.191 74.12C244.615 73.032 243.911 71.528 243.079 69.608C242.311 67.624 241.479 65.448 240.583 63.08C239.687 60.648 238.759 58.056 237.799 55.304C236.839 52.552 235.911 49.832 235.015 47.144C234.183 44.456 233.415 41.864 232.711 39.368C232.007 36.872 231.431 34.664 230.983 32.744C231.879 31.848 233.063 31.08 234.535 30.44C236.071 29.736 237.735 29.384 239.527 29.384C241.767 29.384 243.591 29.864 244.999 30.824C246.471 31.72 247.559 33.448 248.263 36.008L252.007 50.696C252.711 53.576 253.383 56.2 254.023 58.568C254.663 60.872 255.143 62.664 255.463 63.944H255.943C257.159 59.208 258.439 53.96 259.783 48.2C261.127 42.44 262.343 36.776 263.431 31.208C264.519 30.632 265.735 30.184 267.079 29.864C268.487 29.544 269.831 29.384 271.111 29.384C273.351 29.384 275.239 29.864 276.775 30.824C278.311 31.784 279.079 33.448 279.079 35.816C279.079 36.84 278.823 38.344 278.311 40.328C277.863 42.248 277.255 44.456 276.487 46.952C275.783 49.384 274.919 51.976 273.895 54.728C272.935 57.48 271.943 60.168 270.919 62.792C269.895 65.416 268.871 67.88 267.847 70.184C266.887 72.424 266.023 74.28 265.255 75.752Z" fill="#FF521B"/>
<path d="M21.848 64.52L21.2815 65.344L21.293 65.352L21.3047 65.3596L21.848 64.52ZM29.336 65.384L29.46 66.3763L29.4903 66.3725L29.5203 66.3669L29.336 65.384ZM32.024 64.712L32.798 64.0788L32.3616 63.5454L31.7078 63.7633L32.024 64.712ZM33.464 67.112L32.5449 67.5059L32.5624 67.5469L32.5835 67.5861L33.464 67.112ZM31.352 76.136L30.7144 75.3656L30.7078 75.3711L30.7012 75.3767L31.352 76.136ZM8.696 74.6L8.04785 75.3616L8.05582 75.3682L8.696 74.6ZM4.184 21.032L3.92088 20.0672L3.184 20.2682V21.032H4.184ZM7.16 20.456L7.30834 21.4449L7.32779 21.442L7.34711 21.4383L7.16 20.456ZM17.912 21.608L17.3573 22.44L17.3771 22.4532L17.3975 22.4655L17.912 21.608ZM20.312 33.992H19.312V34.992H20.312V33.992ZM32.888 33.992L33.7659 33.5131L33.4816 32.992H32.888V33.992ZM33.944 36.68L32.9846 36.9622L32.9949 36.9971L33.0077 37.0311L33.944 36.68ZM20.312 46.472V45.472H19.312V46.472H20.312ZM19.312 60.968C19.312 62.8385 19.8986 64.3933 21.2815 65.344L22.4145 63.696C21.7494 63.2387 21.312 62.4255 21.312 60.968H19.312ZM21.3047 65.3596C22.6149 66.2073 24.3345 66.576 26.36 66.576V64.576C24.5455 64.576 23.2571 64.2407 22.3913 63.6804L21.3047 65.3596ZM26.36 66.576C27.3644 66.576 28.3979 66.509 29.46 66.3763L29.212 64.3917C28.2261 64.515 27.2756 64.576 26.36 64.576V66.576ZM29.5203 66.3669C30.577 66.1687 31.5189 65.9345 32.3402 65.6607L31.7078 63.7633C30.9931 64.0015 30.143 64.2153 29.1517 64.4011L29.5203 66.3669ZM31.25 65.3452C31.7626 65.9717 32.1952 66.6899 32.5449 67.5059L34.3831 66.7181C33.9648 65.7421 33.4374 64.8603 32.798 64.0788L31.25 65.3452ZM32.5835 67.5861C32.9338 68.2365 33.136 69.0873 33.136 70.184H35.136C35.136 68.8487 34.8902 67.6515 34.3445 66.6379L32.5835 67.5861ZM33.136 70.184C33.136 72.3213 32.3384 74.0217 30.7144 75.3656L31.9896 76.9064C34.0776 75.1783 35.136 72.9107 35.136 70.184H33.136ZM30.7012 75.3767C29.1978 76.6654 26.3168 77.44 21.752 77.44V79.44C26.4032 79.44 29.9222 78.6786 32.0028 76.8953L30.7012 75.3767ZM21.752 77.44C16.2597 77.44 12.1674 76.1911 9.33618 73.8318L8.05582 75.3682C11.3686 78.1289 15.9803 79.44 21.752 79.44V77.44ZM9.34412 73.8385C6.64643 71.5426 5.184 67.7246 5.184 62.12H3.184C3.184 68.0354 4.72957 72.5374 8.04788 75.3615L9.34412 73.8385ZM5.184 62.12V21.032H3.184V62.12H5.184ZM4.44712 21.9968C5.0952 21.82 6.04238 21.6348 7.30834 21.4449L7.01166 19.4671C5.71762 19.6612 4.6808 19.86 3.92088 20.0672L4.44712 21.9968ZM7.34711 21.4383C8.62498 21.1949 9.97008 21.072 11.384 21.072V19.072C9.85392 19.072 8.38302 19.2051 6.97289 19.4737L7.34711 21.4383ZM11.384 21.072C14.0993 21.072 16.0509 21.5691 17.3573 22.44L18.4667 20.7759C16.7011 19.5989 14.3007 19.072 11.384 19.072V21.072ZM17.3975 22.4655C18.5279 23.1437 19.312 24.7437 19.312 27.848H21.312C21.312 24.5523 20.4961 21.9923 18.4265 20.7505L17.3975 22.4655ZM19.312 27.848V33.992H21.312V27.848H19.312ZM20.312 34.992H32.888V32.992H20.312V34.992ZM32.0101 34.4709C32.3492 35.0926 32.6772 35.9168 32.9846 36.9622L34.9034 36.3978C34.5708 35.2672 34.1948 34.2994 33.7659 33.5131L32.0101 34.4709ZM33.0077 37.0311C33.3431 37.9255 33.52 38.9559 33.52 40.136H35.52C35.52 38.7561 35.3129 37.4825 34.8803 36.3289L33.0077 37.0311ZM33.52 40.136C33.52 42.2523 33.0326 43.5691 32.2769 44.3249L33.6911 45.7391C34.9834 44.4469 35.52 42.4997 35.52 40.136H33.52ZM32.2769 44.3249C31.5451 45.0567 30.5104 45.472 29.048 45.472V47.472C30.9136 47.472 32.5029 46.9273 33.6911 45.7391L32.2769 44.3249ZM29.048 45.472H20.312V47.472H29.048V45.472ZM19.312 46.472V60.968H21.312V46.472H19.312ZM44.4455 11.24L43.7384 10.5329L43.7315 10.5398L43.7247 10.5469L44.4455 11.24ZM57.4055 11.24L56.6847 11.9331L56.6915 11.9402L56.6984 11.9471L57.4055 11.24ZM57.4055 23.528L56.6984 22.8209L56.6915 22.8278L56.6847 22.8349L57.4055 23.528ZM44.4455 23.528L43.7247 24.2211L43.7315 24.2282L43.7384 24.2351L44.4455 23.528ZM59.1335 76.904L59.3124 77.8879L60.1335 77.7386V76.904H59.1335ZM55.9655 77.384L55.8304 76.3932L55.8043 76.3967L55.7784 76.4017L55.9655 77.384ZM47.9975 77.48L47.8237 78.4648L47.8331 78.4664L47.9975 77.48ZM45.2135 76.328L44.6135 77.128L45.2135 76.328ZM43.3895 74.024L42.4532 74.3751L42.4668 74.4116L42.4833 74.4469L43.3895 74.024ZM42.8135 31.016L42.6346 30.0321L41.8135 30.1814V31.016H42.8135ZM45.8855 30.536L46.0269 31.5259L46.0457 31.5233L46.0644 31.5199L45.8855 30.536ZM53.8535 30.44L53.6797 31.4248L53.6891 31.4264L53.8535 30.44ZM56.7335 31.592L56.1335 32.392L56.7335 31.592ZM58.4615 33.992L57.5252 34.3431L57.5388 34.3796L57.5553 34.4149L58.4615 33.992ZM43.0455 17.384C43.0455 15.1951 43.7558 13.4001 45.1663 11.9331L43.7247 10.5469C41.9352 12.4079 41.0455 14.7089 41.0455 17.384H43.0455ZM45.1526 11.9471C46.6019 10.4978 48.5097 9.744 50.9735 9.744V7.744C48.0613 7.744 45.6171 8.65423 43.7384 10.5329L45.1526 11.9471ZM50.9735 9.744C53.4381 9.744 55.3044 10.4977 56.6847 11.9331L58.1263 10.5469C56.3066 8.65432 53.8849 7.744 50.9735 7.744V9.744ZM56.6984 11.9471C58.168 13.4167 58.9015 15.2073 58.9015 17.384H60.9015C60.9015 14.6967 59.971 12.3913 58.1126 10.5329L56.6984 11.9471ZM58.9015 17.384C58.9015 19.5607 58.168 21.3513 56.6984 22.8209L58.1126 24.2351C59.971 22.3767 60.9015 20.0713 60.9015 17.384H58.9015ZM56.6847 22.8349C55.3044 24.2703 53.4381 25.024 50.9735 25.024V27.024C53.8849 27.024 56.3066 26.1137 58.1263 24.2211L56.6847 22.8349ZM50.9735 25.024C48.5097 25.024 46.6019 24.2702 45.1526 22.8209L43.7384 24.2351C45.6171 26.1138 48.0613 27.024 50.9735 27.024V25.024ZM45.1663 22.8349C43.7558 21.3679 43.0455 19.5729 43.0455 17.384H41.0455C41.0455 20.0591 41.9352 22.3601 43.7247 24.2211L45.1663 22.8349ZM58.9546 75.9201C58.2732 76.044 57.235 76.2016 55.8304 76.3932L56.1006 78.3748C57.512 78.1824 58.5858 78.02 59.3124 77.8879L58.9546 75.9201ZM55.7784 76.4017C54.4978 76.6456 53.1845 76.768 51.8375 76.768V78.768C53.3065 78.768 54.7452 78.6344 56.1526 78.3663L55.7784 76.4017ZM51.8375 76.768C50.4738 76.768 49.2499 76.6749 48.1619 76.4936L47.8331 78.4664C49.0491 78.6691 50.3852 78.768 51.8375 78.768V76.768ZM48.1713 76.4952C47.2145 76.3264 46.4382 75.9965 45.8135 75.528L44.6135 77.128C45.5248 77.8115 46.6045 78.2496 47.8237 78.4648L48.1713 76.4952ZM45.8135 75.528C45.1902 75.0605 44.6815 74.4279 44.2957 73.6011L42.4833 74.4469C42.9935 75.5401 43.7008 76.4435 44.6135 77.128L45.8135 75.528ZM44.3258 73.6729C43.9986 72.8003 43.8135 71.6186 43.8135 70.088H41.8135C41.8135 71.7574 42.0124 73.1997 42.4532 74.3751L44.3258 73.6729ZM43.8135 70.088V31.016H41.8135V70.088H43.8135ZM42.9924 31.9999C43.6774 31.8753 44.6865 31.7174 46.0269 31.5259L45.7441 29.546C44.3965 29.7386 43.3576 29.9007 42.6346 30.0321L42.9924 31.9999ZM46.0644 31.5199C47.4143 31.2744 48.7625 31.152 50.1095 31.152V29.152C48.6405 29.152 47.1727 29.2856 45.7066 29.5521L46.0644 31.5199ZM50.1095 31.152C51.4742 31.152 52.6622 31.2452 53.6797 31.4248L54.0273 29.4552C52.8688 29.2508 51.5608 29.152 50.1095 29.152V31.152ZM53.6891 31.4264C54.7169 31.5977 55.5185 31.9308 56.1335 32.392L57.3335 30.792C56.4125 30.1012 55.2941 29.6663 54.0179 29.4536L53.6891 31.4264ZM56.1335 32.392C56.7284 32.8382 57.1986 33.4722 57.5252 34.3431L59.3978 33.6409C58.9564 32.4638 58.2746 31.4978 57.3335 30.792L56.1335 32.392ZM57.5553 34.4149C57.9181 35.1924 58.1335 36.3103 58.1335 37.832H60.1335C60.1335 36.1537 59.9009 34.7116 59.3677 33.5691L57.5553 34.4149ZM58.1335 37.832V76.904H60.1335V37.832H58.1335ZM97.3633 43.112L96.7016 43.8618L96.7249 43.8823L96.7493 43.9014L97.3633 43.112ZM89.0113 42.152L88.7687 41.1818L88.7568 41.1849L89.0113 42.152ZM85.8433 43.592L85.262 42.7783L84.8433 43.0774V43.592H85.8433ZM85.8433 76.904L86.1306 77.8618L86.8433 77.648V76.904H85.8433ZM82.7712 77.48L82.6361 76.4892L82.6298 76.4901L82.7712 77.48ZM74.7073 77.48L74.5335 78.4648L74.5429 78.4664L74.7073 77.48ZM71.9232 76.328L72.5233 75.528L71.9232 76.328ZM70.0993 74.024L69.1629 74.3751L69.1766 74.4116L69.1931 74.4469L70.0993 74.024ZM70.5792 37.064L69.7623 36.4873L69.7506 36.5038L69.7397 36.5207L70.5792 37.064ZM73.6513 34.088L74.2247 34.9072L74.2279 34.905L73.6513 34.088ZM81.8112 30.344L81.5341 29.3832L81.5291 29.3846L81.8112 30.344ZM109.555 33.704L108.921 34.4774L108.929 34.4836L109.555 33.704ZM115.411 76.904L115.699 77.8618L116.411 77.648V76.904H115.411ZM112.339 77.48L112.204 76.4892L112.198 76.4901L112.339 77.48ZM104.275 77.48L104.101 78.4648L104.111 78.4664L104.275 77.48ZM101.491 76.328L100.891 77.128L101.491 76.328ZM99.6673 74.024L98.7309 74.3751L98.7446 74.4116L98.7611 74.4469L99.6673 74.024ZM100.091 47.432C100.091 45.2581 99.4532 43.4707 97.9772 42.3226L96.7493 43.9014C97.5773 44.5453 98.0912 45.6379 98.0912 47.432H100.091ZM98.0249 42.3622C96.7019 41.1949 94.9348 40.672 92.8512 40.672V42.672C94.6077 42.672 95.8486 43.1091 96.7016 43.8618L98.0249 42.3622ZM92.8512 40.672C91.487 40.672 90.1256 40.8426 88.7687 41.1819L89.2538 43.1221C90.4569 42.8214 91.6555 42.672 92.8512 42.672V40.672ZM88.7568 41.1849C87.4399 41.5315 86.2697 42.0585 85.262 42.7783L86.4245 44.4057C87.2088 43.8455 88.1506 43.4125 89.2657 43.1191L88.7568 41.1849ZM84.8433 43.592V76.904H86.8433V43.592H84.8433ZM85.5559 75.9462C84.9953 76.1144 84.0366 76.2982 82.6361 76.4892L82.9064 78.4708C84.3219 78.2778 85.4112 78.0776 86.1306 77.8618L85.5559 75.9462ZM82.6298 76.4901C81.3364 76.6748 79.9758 76.768 78.5472 76.768V78.768C80.0627 78.768 81.5181 78.6692 82.9127 78.4699L82.6298 76.4901ZM78.5472 76.768C77.1835 76.768 75.9596 76.6749 74.8717 76.4936L74.5429 78.4664C75.7589 78.6691 77.095 78.768 78.5472 78.768V76.768ZM74.881 76.4952C73.9242 76.3264 73.1479 75.9965 72.5233 75.528L71.3232 77.128C72.2346 77.8115 73.3143 78.2496 74.5335 78.4648L74.881 76.4952ZM72.5233 75.528C71.9 75.0605 71.3913 74.4279 71.0054 73.6011L69.1931 74.4469C69.7032 75.5401 70.4105 76.4435 71.3232 77.128L72.5233 75.528ZM71.0356 73.6729C70.7084 72.8003 70.5232 71.6186 70.5232 70.088H68.5232C68.5232 71.7574 68.7221 73.1997 69.1629 74.3751L71.0356 73.6729ZM70.5232 70.088V41.288H68.5232V70.088H70.5232ZM70.5232 41.288C70.5232 39.69 70.8491 38.4877 71.4188 37.6073L69.7397 36.5207C68.9014 37.8163 68.5232 39.43 68.5232 41.288H70.5232ZM71.3962 37.6407C72.0872 36.6617 73.0232 35.7483 74.2247 34.9072L73.0778 33.2688C71.7193 34.2197 70.6073 35.2903 69.7623 36.4873L71.3962 37.6407ZM74.2279 34.905C76.2933 33.4471 78.907 32.2406 82.0934 31.3034L81.5291 29.3846C78.1875 30.3674 75.3612 31.6569 73.0746 33.271L74.2279 34.905ZM82.0884 31.3048C85.313 30.3747 88.898 29.904 92.8512 29.904V27.904C88.7405 27.904 84.9655 28.3933 81.5341 29.3832L82.0884 31.3048ZM92.8512 29.904C99.9499 29.904 105.259 31.4758 108.921 34.4774L110.189 32.9306C106.043 29.5322 100.217 27.904 92.8512 27.904V29.904ZM108.929 34.4836C112.565 37.4045 114.411 41.4843 114.411 46.856H116.411C116.411 40.9637 114.353 36.2755 110.182 32.9244L108.929 34.4836ZM114.411 46.856V76.904H116.411V46.856H114.411ZM115.124 75.9462C114.563 76.1144 113.605 76.2982 112.204 76.4892L112.474 78.4708C113.89 78.2778 114.979 78.0776 115.699 77.8618L115.124 75.9462ZM112.198 76.4901C110.904 76.6748 109.544 76.768 108.115 76.768V78.768C109.631 78.768 111.086 78.6692 112.481 78.4699L112.198 76.4901ZM108.115 76.768C106.752 76.768 105.528 76.6749 104.44 76.4936L104.111 78.4664C105.327 78.6691 106.663 78.768 108.115 78.768V76.768ZM104.449 76.4952C103.492 76.3264 102.716 75.9965 102.091 75.528L100.891 77.128C101.803 77.8115 102.882 78.2496 104.101 78.4648L104.449 76.4952ZM102.091 75.528C101.468 75.0605 100.959 74.4279 100.573 73.6011L98.7611 74.4469C99.2712 75.5401 99.9785 76.4435 100.891 77.128L102.091 75.528ZM100.604 73.6729C100.276 72.8003 100.091 71.6186 100.091 70.088H98.0912C98.0912 71.7574 98.2901 73.1997 98.7309 74.3751L100.604 73.6729ZM100.091 70.088V47.432H98.0912V70.088H100.091ZM125.396 42.728L126.319 43.1126L126.322 43.1059L125.396 42.728ZM130.676 34.952L130.012 34.2045L130.001 34.214L130.676 34.952ZM138.644 30.44L138.948 31.3927L138.96 31.3887L138.644 30.44ZM152.276 29.288L152.07 30.2665L152.095 30.2718L152.12 30.2758L152.276 29.288ZM155.252 30.056L154.867 30.9791L156.252 31.556V30.056H155.252ZM155.252 14.504L154.965 13.5462L154.252 13.76V14.504H155.252ZM158.324 13.928L158.459 14.9188L158.481 14.9158L158.503 14.9119L158.324 13.928ZM166.388 13.832L166.214 14.8168L166.224 14.8184L166.388 13.832ZM169.268 14.984L168.668 15.784L169.268 14.984ZM170.996 17.384L170.06 17.7351L170.063 17.7453L170.068 17.7554L170.996 17.384ZM167.348 73.928L166.811 73.0843L166.8 73.0915L167.348 73.928ZM160.148 77.096L159.857 76.1393L159.847 76.1422L159.838 76.1453L160.148 77.096ZM138.74 76.808L138.407 77.751L138.413 77.753L138.74 76.808ZM130.388 71.816L129.691 72.5333L129.701 72.543L130.388 71.816ZM125.204 64.04L124.268 64.3911L124.272 64.403L124.277 64.4148L125.204 64.04ZM142.772 44.648L143.502 45.3312L142.772 44.648ZM142.58 62.696L141.816 63.3409L141.821 63.3469L141.826 63.3528L142.58 62.696ZM153.14 65.192L153.476 66.1337L153.494 66.1274L153.511 66.1205L153.14 65.192ZM155.348 63.944L156.007 64.6966L156.348 64.3978V63.944H155.348ZM155.348 42.824H156.348V42.2578L155.863 41.9665L155.348 42.824ZM124.476 53.672C124.476 49.5459 125.102 46.0347 126.319 43.1126L124.473 42.3434C123.13 45.5653 122.476 49.3501 122.476 53.672H124.476ZM126.322 43.1059C127.552 40.091 129.232 37.627 131.351 35.69L130.001 34.214C127.64 36.373 125.8 39.093 124.47 42.3501L126.322 43.1059ZM131.34 35.6994C133.537 33.7465 136.07 32.3112 138.948 31.3927L138.34 29.4873C135.202 30.4888 132.423 32.0615 130.012 34.2046L131.34 35.6994ZM138.96 31.3887C141.922 30.4015 145.11 29.904 148.532 29.904V27.904C144.914 27.904 141.51 28.4305 138.328 29.4913L138.96 31.3887ZM148.532 29.904C149.745 29.904 150.924 30.0252 152.07 30.2665L152.482 28.3094C151.196 28.0388 149.879 27.904 148.532 27.904V29.904ZM152.12 30.2758C153.291 30.4607 154.199 30.7004 154.867 30.9791L155.637 29.1329C154.769 28.7716 153.693 28.4993 152.432 28.3002L152.12 30.2758ZM156.252 30.056V14.504H154.252V30.056H156.252ZM155.539 15.4618C156.1 15.2936 157.059 15.1098 158.459 14.9188L158.189 12.9372C156.773 13.1302 155.684 13.3304 154.965 13.5462L155.539 15.4618ZM158.503 14.9119C159.85 14.6669 161.23 14.544 162.644 14.544V12.544C161.114 12.544 159.614 12.6771 158.145 12.9441L158.503 14.9119ZM162.644 14.544C164.009 14.544 165.197 14.6372 166.214 14.8168L166.562 12.8472C165.403 12.6428 164.095 12.544 162.644 12.544V14.544ZM166.224 14.8184C167.251 14.9897 168.053 15.3228 168.668 15.784L169.868 14.184C168.947 13.4932 167.829 13.0583 166.552 12.8456L166.224 14.8184ZM168.668 15.784C169.263 16.2302 169.733 16.8642 170.06 17.7351L171.932 17.0329C171.491 15.8558 170.809 14.8898 169.868 14.184L168.668 15.784ZM170.068 17.7554C170.386 18.5507 170.572 19.689 170.572 21.224H172.572C172.572 19.559 172.374 18.1373 171.924 17.0126L170.068 17.7554ZM170.572 21.224V66.728H172.572V21.224H170.572ZM170.572 66.728C170.572 69.3518 169.376 71.452 166.811 73.0843L167.885 74.7717C170.952 72.82 172.572 70.1202 172.572 66.728H170.572ZM166.8 73.0915C165.047 74.2397 162.742 75.2611 159.857 76.1393L160.439 78.0527C163.442 77.1388 165.937 76.0483 167.896 74.7645L166.8 73.0915ZM159.838 76.1453C157.015 77.0659 153.731 77.536 149.972 77.536V79.536C153.893 79.536 157.393 79.0461 160.458 78.0467L159.838 76.1453ZM149.972 77.536C145.904 77.536 142.273 76.9727 139.067 75.863L138.413 77.753C141.863 78.9473 145.72 79.536 149.972 79.536V77.536ZM139.073 75.865C135.928 74.7552 133.268 73.1605 131.075 71.089L129.701 72.543C132.116 74.8235 135.024 76.5568 138.407 77.751L139.073 75.865ZM131.085 71.0987C128.948 69.0234 127.297 66.5494 126.131 63.6652L124.277 64.4148C125.543 67.5466 127.348 70.2566 129.691 72.5333L131.085 71.0987ZM126.14 63.6889C125.037 60.7465 124.476 57.4121 124.476 53.672H122.476C122.476 57.6119 123.067 61.1895 124.268 64.3911L126.14 63.6889ZM150.74 40.672C147.087 40.672 144.135 41.7269 142.042 43.9648L143.502 45.3312C145.121 43.6011 147.481 42.672 150.74 42.672V40.672ZM142.042 43.9648C139.945 46.2066 138.988 49.507 138.988 53.672H140.988C140.988 49.773 141.887 47.0574 143.502 45.3312L142.042 43.9648ZM138.988 53.672C138.988 57.766 139.877 61.0432 141.816 63.3409L143.344 62.0511C141.827 60.2528 140.988 57.514 140.988 53.672H138.988ZM141.826 63.3528C143.788 65.6059 146.59 66.672 150.068 66.672V64.672C147.018 64.672 144.828 63.7541 143.334 62.0392L141.826 63.3528ZM150.068 66.672C151.311 66.672 152.452 66.4995 153.476 66.1337L152.804 64.2503C152.036 64.5246 151.129 64.672 150.068 64.672V66.672ZM153.511 66.1205C154.528 65.714 155.377 65.2471 156.007 64.6966L154.689 63.1914C154.295 63.5369 153.672 63.902 152.769 64.2635L153.511 66.1205ZM156.348 63.944V42.824H154.348V63.944H156.348ZM155.863 41.9665C154.399 41.0881 152.677 40.672 150.74 40.672V42.672C152.387 42.672 153.737 43.0239 154.833 43.6815L155.863 41.9665ZM195.854 77L195.532 77.9468L195.543 77.9506L195.555 77.9541L195.854 77ZM187.406 72.2L186.74 72.9464L186.75 72.955L187.406 72.2ZM181.742 64.232L180.82 64.6192L180.823 64.627L180.827 64.6347L181.742 64.232ZM181.742 42.152L180.833 41.7353L180.829 41.7441L181.742 42.152ZM187.214 34.664L187.865 35.4233L187.871 35.418L187.877 35.4126L187.214 34.664ZM194.894 30.344L195.191 31.2989L195.201 31.2959L195.21 31.2927L194.894 30.344ZM212.942 30.44L212.593 31.3772L212.6 31.3798L212.942 30.44ZM220.142 34.664L219.472 35.4061L219.478 35.4114L219.483 35.4166L220.142 34.664ZM224.846 41.096L223.929 41.4956L223.934 41.5054L223.938 41.5151L224.846 41.096ZM224.75 54.248L224.062 53.522V53.522L224.75 54.248ZM219.662 56.456L219.517 55.4666L219.514 55.467L219.662 56.456ZM195.95 60.008L195.802 59.019L194.625 59.1953L195.001 60.3242L195.95 60.008ZM200.27 64.808L199.823 65.7024L199.833 65.7077L199.844 65.7128L200.27 64.808ZM215.15 65.384L215.418 66.3475L215.426 66.3451L215.435 66.3425L215.15 65.384ZM220.91 62.984L221.44 62.136L220.917 61.8091L220.39 62.1298L220.91 62.984ZM223.502 65.672L224.355 65.1506L223.502 65.672ZM220.526 75.752L220.062 74.8661L220.057 74.8689L220.526 75.752ZM213.614 77.96L213.466 76.9711L213.614 77.96ZM199.694 41.576L199.288 40.6622L199.278 40.6666L199.268 40.6712L199.694 41.576ZM197.006 43.592L197.743 44.2677L197.757 44.2531L197.769 44.2379L197.006 43.592ZM195.374 46.28L194.438 45.9289L194.431 45.9462L194.425 45.9638L195.374 46.28ZM194.798 49.256L193.8 49.1936L193.722 50.4455L194.96 50.2429L194.798 49.256ZM211.214 46.568L211.376 47.5549L212.349 47.3954L212.203 46.4197L211.214 46.568ZM209.102 42.728L209.827 42.0392L209.102 42.728ZM206.414 77.536C202.729 77.536 199.311 77.0365 196.153 76.0459L195.555 77.9541C198.925 79.0115 202.547 79.536 206.414 79.536V77.536ZM196.176 76.0532C193.092 75.0048 190.391 73.4679 188.062 71.445L186.75 72.955C189.285 75.1561 192.216 76.8192 195.532 77.9468L196.176 76.0532ZM188.072 71.4537C185.821 69.4464 184.014 66.9117 182.657 63.8293L180.827 64.6347C182.286 67.9523 184.255 70.7296 186.74 72.9463L188.072 71.4537ZM182.664 63.8448C181.382 60.7926 180.726 57.1854 180.726 53H178.726C178.726 57.3906 179.414 61.2714 180.82 64.6192L182.664 63.8448ZM180.726 53C180.726 48.8784 181.382 45.4088 182.655 42.5599L180.829 41.7441C179.414 44.9112 178.726 48.6736 178.726 53H180.726ZM182.651 42.5687C184.008 39.6091 185.75 37.2363 187.865 35.4233L186.563 33.9047C184.198 35.9317 182.292 38.5509 180.833 41.7353L182.651 42.5687ZM187.877 35.4126C190.01 33.5233 192.445 32.1531 195.191 31.2989L194.597 29.3891C191.583 30.3269 188.898 31.8367 186.551 33.9154L187.877 35.4126ZM195.21 31.2927C197.989 30.3663 200.826 29.904 203.726 29.904V27.904C200.61 27.904 197.559 28.4016 194.578 29.3953L195.21 31.2927ZM203.726 29.904C207.017 29.904 209.969 30.4006 212.593 31.3772L213.291 29.5028C210.411 28.4314 207.219 27.904 203.726 27.904V29.904ZM212.6 31.3798C215.31 32.365 217.594 33.7104 219.472 35.4061L220.812 33.9219C218.722 32.0336 216.206 30.563 213.284 29.5002L212.6 31.3798ZM219.483 35.4166C221.42 37.1113 222.9 39.1348 223.929 41.4956L225.763 40.6964C224.616 38.0652 222.96 35.8007 220.801 33.9114L219.483 35.4166ZM223.938 41.5151C225.025 43.8705 225.574 46.4463 225.574 49.256H227.574C227.574 46.1777 226.971 43.3135 225.754 40.6769L223.938 41.5151ZM225.574 49.256C225.574 51.2438 225.024 52.611 224.062 53.522L225.438 54.974C226.908 53.581 227.574 51.6202 227.574 49.256H225.574ZM224.062 53.522C223.036 54.4942 221.552 55.1673 219.517 55.4666L219.807 57.4454C222.124 57.1047 224.032 56.3058 225.438 54.974L224.062 53.522ZM219.514 55.467L195.802 59.019L196.098 60.997L219.81 57.445L219.514 55.467ZM195.001 60.3242C195.797 62.7124 197.434 64.5079 199.823 65.7024L200.717 63.9136C198.754 62.9321 197.511 61.5276 196.899 59.6918L195.001 60.3242ZM199.844 65.7128C202.174 66.8093 204.82 67.344 207.758 67.344V65.344C205.064 65.344 202.718 64.8547 200.696 63.9032L199.844 65.7128ZM207.758 67.344C210.464 67.344 213.018 67.014 215.418 66.3475L214.882 64.4205C212.674 65.034 210.3 65.344 207.758 65.344V67.344ZM215.435 66.3425C217.853 65.6236 219.86 64.7936 221.43 63.8382L220.39 62.1298C219.016 62.9664 217.183 63.7364 214.865 64.4255L215.435 66.3425ZM220.38 63.832C221.257 64.3804 222.016 65.1581 222.649 66.1935L224.355 65.1506C223.58 63.8819 222.611 62.8676 221.44 62.136L220.38 63.832ZM222.649 66.1935C223.262 67.1974 223.558 68.2343 223.558 69.32H225.558C225.558 67.8457 225.15 66.4506 224.355 65.1506L222.649 66.1935ZM223.558 69.32C223.558 70.5987 223.262 71.6652 222.703 72.5569C222.142 73.4514 221.28 74.228 220.062 74.8662L220.99 76.6378C222.46 75.868 223.614 74.8686 224.397 73.6191C225.182 72.3668 225.558 70.9213 225.558 69.32H223.558ZM220.057 74.8689C218.12 75.8979 215.926 76.6019 213.466 76.9711L213.762 78.9489C216.422 78.55 218.836 77.7821 220.995 76.6351L220.057 74.8689ZM213.466 76.9711C210.947 77.3488 208.597 77.536 206.414 77.536V79.536C208.711 79.536 211.161 79.3392 213.762 78.9489L213.466 76.9711ZM203.726 39.808C202.08 39.808 200.592 40.0824 199.288 40.6622L200.1 42.4898C201.1 42.0456 202.3 41.808 203.726 41.808V39.808ZM199.268 40.6712C198.064 41.2379 197.048 41.9937 196.243 42.9461L197.769 44.2379C198.372 43.5263 199.148 42.9381 200.12 42.4808L199.268 40.6712ZM196.269 42.9163C195.474 43.7834 194.864 44.791 194.438 45.9289L196.31 46.6311C196.652 45.721 197.13 44.9366 197.743 44.2677L196.269 42.9163ZM194.425 45.9638C194.078 47.007 193.869 48.0844 193.8 49.1936L195.796 49.3184C195.855 48.3796 196.03 47.473 196.323 46.5962L194.425 45.9638ZM194.96 50.2429L211.376 47.5549L211.052 45.5811L194.636 48.2691L194.96 50.2429ZM212.203 46.4197C211.971 44.8748 211.134 43.4151 209.827 42.0392L208.377 43.4167C209.502 44.6009 210.073 45.7012 210.225 46.7163L212.203 46.4197ZM209.827 42.0392C208.364 40.4996 206.271 39.808 203.726 39.808V41.808C205.917 41.808 207.408 42.3964 208.377 43.4167L209.827 42.0392ZM265.254 75.752L265.872 76.5383L266.042 76.4054L266.141 76.2146L265.254 75.752ZM261.319 77.48L261.569 78.448L261.319 77.48ZM248.935 77.192L248.598 78.1338L248.609 78.1374L248.935 77.192ZM245.191 74.12L246.085 73.6728L246.08 73.6624L246.074 73.6521L245.191 74.12ZM243.079 69.608L242.146 69.969L242.153 69.9874L242.161 70.0056L243.079 69.608ZM240.583 63.08L239.644 63.4257L239.647 63.4339L240.583 63.08ZM237.799 55.304L236.854 55.6334L237.799 55.304ZM235.014 47.144L234.059 47.4397L234.062 47.45L234.066 47.4602L235.014 47.144ZM232.71 39.368L233.673 39.0965L232.71 39.368ZM230.982 32.744L230.275 32.0369L229.882 32.4299L230.009 32.9712L230.982 32.744ZM234.535 30.44L234.933 31.3571L234.942 31.3532L234.951 31.3491L234.535 30.44ZM244.999 30.824L244.435 31.6502L244.456 31.6648L244.479 31.6782L244.999 30.824ZM248.262 36.008L249.232 35.761L249.229 35.7519L249.227 35.7428L248.262 36.008ZM252.007 50.696L252.978 50.4585L252.976 50.449L252.007 50.696ZM254.023 58.568L253.057 58.8289L253.059 58.8356L254.023 58.568ZM255.462 63.944L254.492 64.1865L254.682 64.944H255.462V63.944ZM255.943 63.944V64.944H256.718L256.911 64.1927L255.943 63.944ZM263.431 31.208L262.963 30.3242L262.541 30.5476L262.449 31.0162L263.431 31.208ZM267.078 29.864L266.857 28.8888L266.847 28.8912L267.078 29.864ZM276.775 30.824L277.305 29.976L276.775 30.824ZM278.31 40.328L277.342 40.0781L277.339 40.0894L277.337 40.1008L278.31 40.328ZM276.487 46.952L275.531 46.6579L275.528 46.6659L275.526 46.6739L276.487 46.952ZM273.895 54.728L272.957 54.3793L272.954 54.3889L272.95 54.3986L273.895 54.728ZM270.918 62.792L271.85 63.1555L270.918 62.792ZM267.846 70.184L266.933 69.7778L266.927 69.7901L267.846 70.184ZM264.637 74.9657C263.893 75.5499 262.73 76.0811 261.068 76.512L261.569 78.448C263.363 77.9829 264.824 77.3621 265.872 76.5383L264.637 74.9657ZM261.068 76.512C259.437 76.9347 257.572 77.152 255.462 77.152V79.152C257.705 79.152 259.744 78.9213 261.569 78.448L261.068 76.512ZM255.462 77.152C253.049 77.152 250.988 76.8422 249.26 76.2466L248.609 78.1374C250.593 78.8218 252.884 79.152 255.462 79.152V77.152ZM249.271 76.2503C247.668 75.6778 246.65 74.8037 246.085 73.6728L244.296 74.5672C245.139 76.2523 246.617 77.4262 248.598 78.1337L249.271 76.2503ZM246.074 73.6521C245.516 72.5975 244.824 71.1205 243.996 69.2104L242.161 70.0056C242.997 71.9355 243.713 73.4665 244.307 74.5879L246.074 73.6521ZM244.011 69.247C243.244 67.2658 242.413 65.0922 241.518 62.7261L239.647 63.4339C240.544 65.8038 241.377 67.9822 242.146 69.969L244.011 69.247ZM241.521 62.7343C240.627 60.3083 239.701 57.7218 238.743 54.9746L236.854 55.6334C237.816 58.3902 238.746 60.9877 239.644 63.4257L241.521 62.7343ZM238.743 54.9746C237.784 52.2269 236.858 49.5113 235.963 46.8278L234.066 47.4602C234.963 50.1527 235.893 52.8771 236.854 55.6334L238.743 54.9746ZM235.97 46.8483C235.14 44.1677 234.374 41.5838 233.673 39.0965L231.748 39.6395C232.455 42.1442 233.225 44.7443 234.059 47.4397L235.97 46.8483ZM233.673 39.0965C232.972 36.6109 232.4 34.4182 231.956 32.5168L230.009 32.9712C230.461 34.9098 231.041 37.1331 231.748 39.6395L233.673 39.0965ZM231.69 33.4511C232.477 32.664 233.547 31.9598 234.933 31.3571L234.136 29.5229C232.578 30.2002 231.28 31.032 230.275 32.0369L231.69 33.4511ZM234.951 31.3491C236.349 30.7086 237.869 30.384 239.527 30.384V28.384C237.6 28.384 235.792 28.7634 234.118 29.5309L234.951 31.3491ZM239.527 30.384C241.628 30.384 243.238 30.8341 244.435 31.6502L245.562 29.9978C243.943 28.8939 241.905 28.384 239.527 28.384V30.384ZM244.479 31.6782C245.641 32.3855 246.626 33.8302 247.298 36.2732L249.227 35.7428C248.491 33.0658 247.3 31.0545 245.518 29.9698L244.479 31.6782ZM247.293 36.255L251.037 50.943L252.976 50.449L249.232 35.761L247.293 36.255ZM251.035 50.9334C251.741 53.8197 252.415 56.4517 253.057 58.8289L254.988 58.3071C254.35 55.9483 253.68 53.3323 252.978 50.4585L251.035 50.9334ZM253.059 58.8356C253.698 61.1368 254.175 62.9191 254.492 64.1865L256.433 63.7015C256.109 62.4089 255.627 60.6072 254.986 58.3004L253.059 58.8356ZM255.462 64.944H255.943V62.944H255.462V64.944ZM256.911 64.1927C258.129 59.4483 259.411 54.193 260.756 48.4272L258.809 47.9728C257.466 53.727 256.188 58.9677 254.974 63.6953L256.911 64.1927ZM260.756 48.4272C262.103 42.656 263.322 36.9801 264.412 31.3998L262.449 31.0162C261.363 36.5719 260.15 42.224 258.809 47.9728L260.756 48.4272ZM263.898 32.0918C264.903 31.5598 266.038 31.1396 267.31 30.8368L266.847 28.8912C265.431 29.2284 264.134 29.7042 262.963 30.3242L263.898 32.0918ZM267.3 30.8391C268.645 30.5336 269.914 30.384 271.111 30.384V28.384C269.747 28.384 268.328 28.5544 266.857 28.8889L267.3 30.8391ZM271.111 30.384C273.207 30.384 274.901 30.8324 276.245 31.672L277.305 29.976C275.576 28.8955 273.494 28.384 271.111 28.384V30.384ZM276.245 31.672C277.399 32.3937 278.078 33.6731 278.078 35.816H280.078C280.078 33.2229 279.222 31.1743 277.305 29.976L276.245 31.672ZM278.078 35.816C278.078 36.7083 277.85 38.1115 277.342 40.0781L279.279 40.5779C279.795 38.5765 280.078 36.9717 280.078 35.816H278.078ZM277.337 40.1008C276.895 41.9924 276.294 44.1774 275.531 46.6579L277.442 47.2461C278.215 44.7346 278.83 42.5036 279.284 40.5552L277.337 40.1008ZM275.526 46.6739C274.83 49.0787 273.974 51.647 272.957 54.3793L274.832 55.0767C275.863 52.305 276.735 49.6893 277.447 47.2301L275.526 46.6739ZM272.95 54.3986C271.994 57.1396 271.006 59.8162 269.987 62.4285L271.85 63.1555C272.879 60.5198 273.875 57.8204 274.839 55.0574L272.95 54.3986ZM269.987 62.4285C268.968 65.0398 267.95 67.4894 266.933 69.7779L268.76 70.5901C269.791 68.2706 270.821 65.7922 271.85 63.1555L269.987 62.4285ZM266.927 69.7901C265.973 72.0165 265.12 73.8476 264.368 75.2894L266.141 76.2146C266.925 74.7124 267.8 72.8315 268.766 70.5779L266.927 69.7901Z" fill="#FF521B"/>
</g>
<path d="M46.5 5C42 6.5 42 16.75 42 16.75L59 12L56 6.5L50.5 1.5L47.75 10.5H46.5V5Z" fill="#FF521B" stroke="#FF521B"/>
<defs>
<filter id="filter0_d_0_1" x="0.184006" y="8.74399" width="282.895" height="77.792" filterUnits="userSpaceOnUse" color-interpolation-filters="sRGB">
<feFlood flood-opacity="0" result="BackgroundImageFix"/>
<feColorMatrix in="SourceAlpha" type="matrix" values="0 0 0 0 0 0 0 0 0 0 0 0 0 0 0 0 0 0 127 0" result="hardAlpha"/>
<feOffset dy="4"/>
<feGaussianBlur stdDeviation="2"/>
<feComposite in2="hardAlpha" operator="out"/>
<feColorMatrix type="matrix" values="0 0 0 0 0 0 0 0 0 0 0 0 0 0 0 0 0 0 0.25 0"/>
<feBlend mode="normal" in2="BackgroundImageFix" result="effect1_dropShadow_0_1"/>
<feBlend mode="normal" in="SourceGraphic" in2="effect1_dropShadow_0_1" result="shape"/>
</filter>
</defs>
</svg>
